<?xml version="1.0" encoding="utf-8"?>
<!-- Generator: Adobe Illustrator 22.1.0, SVG Export Plug-In . SVG Version: 6.00 Build 0)  -->
<svg version="1.1" id="Layer_1" xmlns="http://www.w3.org/2000/svg" xmlns:xlink="http://www.w3.org/1999/xlink" x="0px" y="0px"
	 viewBox="0 0 500 500" style="enable-background:new 0 0 500 500;" xml:space="preserve">
<style type="text/css">
	.st0{fill:#231F20;stroke:#231F20;stroke-width:9;stroke-miterlimit:10;}
	.st1{fill:#FFFFFF;}
</style>
<path class="st0" d="M477.434,488.995h-455c-6.6,0-12-5.4-12-12v-455c0-6.6,5.4-12,12-12h455c6.6,0,12,5.4,12,12v455
	C489.434,483.595,484.034,488.995,477.434,488.995z"/>
<path class="st1" d="M236.077,336.088L390.89,181.776c8.806-8.778,8.818-23.035,0.026-31.827l-2.936-2.936
	c-8.797-8.797-23.066-8.779-31.841,0.04L217.767,286.12c-8.786,8.831-23.078,8.836-31.87,0.011l-45.141-45.305
	c-8.777-8.809-23.037-8.822-31.83-0.029l0,0c-8.782,8.782-8.782,23.02,0,31.801l79.419,79.419c8.782,8.782,23.02,8.782,31.801,0
	L236.077,336.088z"/>
</svg>
