<?xml version="1.0" encoding="utf-8"?>
<!-- Generator: Adobe Illustrator 22.1.0, SVG Export Plug-In . SVG Version: 6.00 Build 0)  -->
<svg version="1.1" id="Layer_1" xmlns="http://www.w3.org/2000/svg" xmlns:xlink="http://www.w3.org/1999/xlink" x="0px" y="0px"
	 viewBox="0 0 500 500" style="enable-background:new 0 0 500 500;" xml:space="preserve">
<style type="text/css">
	.st0{fill:#FFA102;stroke:#FFA102;stroke-miterlimit:10;}
	.st1{fill:#FFFFFF;}
	.st2{fill:none;}
	.st3{font-family:'MyriadPro-Regular';}
	.st4{font-size:62px;}
	.st5{fill:none;stroke:#1D8BF1;stroke-width:5;stroke-miterlimit:10;}
	.st6{fill:#1D8BF1;}
	.st7{fill:#231F20;stroke:#231F20;stroke-miterlimit:10;}
	.st8{fill:none;stroke:#231F20;stroke-width:5;stroke-miterlimit:10;}
	.st9{fill:#939598;}
	.st10{fill:none;stroke:#808285;stroke-width:5;stroke-miterlimit:10;}
</style>
<g>
	<path class="st0" d="M66.095,77.982H19.497c-1.925,0-3.5-1.575-3.5-3.5V27.884c0-1.925,1.575-3.5,3.5-3.5h46.598
		c1.925,0,3.5,1.575,3.5,3.5v46.598C69.595,76.407,68.02,77.982,66.095,77.982z"/>
	<polygon class="st1" points="41.246,60.872 60.354,41.826 56.459,37.932 37.415,57.072 28.801,48.427 25.239,51.989 37.684,64.434 
			"/>
	<rect x="99.748" y="28.184" class="st2" width="341.892" height="45.998"/>
	<text transform="matrix(1 0 0 1 99.7479 72.2035)" class="st3 st4">Checkbox</text>
</g>
<g>
	<rect x="98.353" y="128.096" class="st2" width="341.892" height="45.98"/>
	<text transform="matrix(1 0 0 1 98.3524 172.1154)" class="st3 st4">Radio Button</text>
	<g>
		<circle class="st5" cx="41.401" cy="151.085" r="25.411"/>
		<circle class="st6" cx="41.401" cy="151.085" r="15.195"/>
	</g>
</g>
<path class="st7" d="M69.129,265.886H22.531c-1.925,0-3.5-1.575-3.5-3.5v-46.598c0-1.925,1.575-3.5,3.5-3.5h46.598
	c1.925,0,3.5,1.575,3.5,3.5v46.598C72.629,264.311,71.054,265.886,69.129,265.886z"/>
<polygon class="st1" points="44.28,248.776 63.388,229.73 59.493,225.836 40.449,244.976 31.835,236.331 28.273,239.893 
	40.718,252.338 "/>
<rect x="102.782" y="216.088" class="st2" width="341.892" height="45.998"/>
<text transform="matrix(1 0 0 1 102.7819 260.1075)" class="st3 st4">Checkbox</text>
<rect x="101.387" y="316" class="st2" width="341.892" height="45.98"/>
<text transform="matrix(1 0 0 1 101.3864 360.0193)" class="st3 st4">Radio Button</text>
<circle class="st8" cx="44.435" cy="338.989" r="25.411"/>
<circle class="st7" cx="44.435" cy="338.989" r="15.195"/>
<path class="st9" d="M116.654,462.445H70.056c-1.925,0-3.5-1.575-3.5-3.5v-46.598c0-1.925,1.575-3.5,3.5-3.5h46.598
	c1.925,0,3.5,1.575,3.5,3.5v46.598C120.153,460.871,118.578,462.445,116.654,462.445z"/>
<polygon class="st1" points="91.804,445.336 110.912,426.29 107.017,422.396 87.973,441.536 79.359,432.891 75.797,436.453 
	88.242,448.898 "/>
<circle class="st10" cx="199.411" cy="439.261" r="25.411"/>
<circle class="st9" cx="199.411" cy="439.261" r="15.195"/>
</svg>
