<?xml version="1.0" encoding="utf-8"?>
<!-- Generator: Adobe Illustrator 22.1.0, SVG Export Plug-In . SVG Version: 6.00 Build 0)  -->
<svg version="1.1" xmlns="http://www.w3.org/2000/svg" xmlns:xlink="http://www.w3.org/1999/xlink" x="0px" y="0px"
	 viewBox="0 0 10 10" style="enable-background:new 0 0 10 10;" xml:space="preserve">
<style type="text/css">
	.st0{fill:#E0E0E0;}
	.st1{font-family:'MyriadPro-Regular';}
	.st2{font-size:1.25px;}
</style>
<g id="Layer_1">
</g>
<g id="Layer_2">
	<g>
		<path class="st0" d="M7.4,5.4H2.2C2,5.4,1.7,5.2,1.7,5V2.9c0-0.3,0.2-0.5,0.5-0.5h5.2c0.3,0,0.5,0.2,0.5,0.5V5
			C7.9,5.2,7.7,5.4,7.4,5.4z"/>
		<path d="M3.8,3.2h-1c-0.1,0-0.1,0.1-0.1,0.1v1.2c0,0.1,0.1,0.1,0.1,0.1H4c0.1,0,0.1-0.1,0.1-0.1v-1L3.8,3.2z M2.9,3.3h0.8v0.3H2.9
			V3.3z M3.5,4.5c-0.1,0-0.3-0.1-0.3-0.3S3.3,4,3.5,4s0.3,0.1,0.3,0.3S3.6,4.5,3.5,4.5z"/>
		<text transform="matrix(1 0 0 1 4.4746 4.3663)" class="st1 st2">SAVE</text>
	</g>
</g>
</svg>
