<?xml version="1.0" encoding="utf-8"?>
<!-- Generator: Adobe Illustrator 22.1.0, SVG Export Plug-In . SVG Version: 6.00 Build 0)  -->
<svg version="1.1" id="Layer_1" xmlns="http://www.w3.org/2000/svg" xmlns:xlink="http://www.w3.org/1999/xlink" x="0px" y="0px"
	 viewBox="0 0 100 100" style="enable-background:new 0 0 100 100;" xml:space="preserve">
<style type="text/css">
	.st0{fill:#E0E0E0;}
	.st1{font-family:'MyriadPro-Regular';}
	.st2{font-size:19.625px;}
</style>
<path
  class="st0"
  d="M88.9,47.5H5.2c-2.6,0-4.6-2.1-4.6-4.6V5.1c0-2.6,2.1-4.6,4.6-4.6h83.7c2.6,0,4.6,2.1,4.6,4.6v37.7 C93.5,45.4,91.4,47.5,88.9,47.5z"/>
<path
  d="M32.1,12.9H16.7c-1.2,0-2.2,1-2.2,2.2v18.3c0,1.2,1,2.2,2.2,2.2H35c1.2,0,2.2-1,2.2-2.2V18L32.1,12.9z M17,15.2h12.7v5.3H17 V15.2z M26.7,33.3c-2.7,0.4-5-1.9-4.6-4.6c0.3-1.7,1.6-3.1,3.3-3.3c2.7-0.4,5,1.9,4.6,4.6C29.7,31.7,28.4,33.1,26.7,33.3z"/>
<text transform="matrix(1 0 0 1 41.9499 31.5611)"
  class="st1 st2">SAVE</text>
</svg>
