<?xml version="1.0" encoding="utf-8"?>
<!-- Generator: Adobe Illustrator 22.1.0, SVG Export Plug-In . SVG Version: 6.00 Build 0)  -->
<svg version="1.1" id="Layer_1" xmlns="http://www.w3.org/2000/svg" xmlns:xlink="http://www.w3.org/1999/xlink" x="0px" y="0px"
	 viewBox="0 0 500 500" style="enable-background:new 0 0 500 500;" xml:space="preserve">
<style type="text/css">
	.st0{fill:#FFA103;}
</style>
<circle class="st0" cx="250.077" cy="248.041" r="235.213"/>
<g>
	<path d="M225.087,146.594h50.572c1.969,0,3.858,0.782,5.25,2.175l8.787,8.787h31.572c4.184,0,7.576,3.392,7.576,7.576v14.974
		H171.311v-14.65c0-4.19,3.396-7.586,7.586-7.586h31.562l8.406-8.646C220.499,147.542,222.743,146.594,225.087,146.594z"/>
	<path d="M182.273,192.006l134.983-0.313v135.937c0,12.092-9.817,21.886-21.909,21.858l-90.94-0.211
		c-12.232-0.028-22.134-9.953-22.134-22.185V192.006z"/>
</g>
</svg>
